{"title":"Laura Pausini - En Cambio Nó (DVD Clean).VOB","uid":9936414,"size":230563840,"categoryP":"video","categoryS":"music_videos","magnet":"?xt=urn:btih:7c5e64e0a05d31c8eb14315e504a67ed10c1b9fe&amp;dn=Laura+Pausini+-+En+Cambio+N%26oacute%3B+%28DVD+Clean%29.VOB&amp;tr=udp%3A%2F%2Ftracker.openbittorrent.com%3A80&amp;tr=udp%3A%2F%2Fopen.demonii.com%3A1337&amp;tr=udp%3A%2F%2Ftracker.coppersurfer.tk%3A6969&amp;tr=udp%3A%2F%2Fexodus.desync.com%3A6969","seeders":1,"leechers":1,"uploader":"esteban161092","files":1,"time":1397167015,"description":"General\n\nFormat                           : MPEG-PS\nFile size                        : 220 MiB\nDuration                         : 3mn 55s\nOverall bit rate                 : 7 846 Kbps\n\nVideo\nID                               : 224 (0xE0)\nFormat                           : MPEG Video\nFormat version                   : Version 2\nFormat profile                   : Main@Main\nFormat settings, BVOP            : Yes\nFormat settings, Matrix          : Default\nFormat settings, GOP             : M=3, N=12\nDuration                         : 3mn 55s\nBit rate mode                    : Variable\nBit rate                         : 6 154 Kbps\nNominal bit rate                 : 7 500 Kbps\nWidth                            : 720 pixels\nHeight                           : 576 pixels\nDisplay aspect ratio             : 4:3\nFrame rate                       : 25.000 fps\nStandard                         : PAL\nColor space                      : YUV\nChroma subsampling               : 4:2:0\nBit depth                        : 8 bits\nScan type                        : Interlaced\nScan order                       : Bottom Field First\nCompression mode                 : Lossy\nBits/(Pixel*Frame)               : 0.594\nStream size                      : 172 MiB (78%)\n\nAudio\nID                               : 160 (0xA0)\nFormat                           : PCM\nFormat settings, Endianness      : Big\nFormat settings, Sign            : Signed\nMuxing mode                      : DVD-Video\nDuration                         : 3mn 55s\nBit rate mode                    : Constant\nBit rate                         : 1 536 Kbps\nChannel(s)                       : 2 channels\nChannel positions                : Front: L R\nSampling rate                    : 48.0 KHz\nBit depth                        : 16 bits\nStream size                      : 43.0 MiB (20%)\n\nMenu\n","torrent":{"xt":"urn:btih:7c5e64e0a05d31c8eb14315e504a67ed10c1b9fe","amp;dn":"Laura+Pausini+-+En+Cambio+N%26oacute%3B+%28DVD+Clean%29.VOB","amp;tr":["udp%3A%2F%2Ftracker.openbittorrent.com%3A80","udp%3A%2F%2Fopen.demonii.com%3A1337","udp%3A%2F%2Ftracker.coppersurfer.tk%3A6969","udp%3A%2F%2Fexodus.desync.com%3A6969"],"infoHash":"7c5e64e0a05d31c8eb14315e504a67ed10c1b9fe","infoHashBuffer":{"type":"Buffer","data":[124,94,100,224,160,93,49,200,235,20,49,94,80,74,103,237,16,193,185,254]},"announce":[],"urlList":[]}}